# xmcd CD database file
#
# Track frame offsets:
#	150
#	18175
#	33360
#	52400
#	68297
#	83800
#	100055
#	116255
#	129105
#
# Disc length: 1956 seconds
#
# Revision: 0
# Processed by: cddbd v1.5PL3 Copyright (c) Steve Scherf et al.
# Submitted via: CDex 1.50
#
DISCID=6207a209
DTITLE=GODIEGO - ONE DIMENSION MAN
DYEAR=1984
DGENRE=Rock
TTITLE0=THE X-RAY VISION OF A POET
TTITLE1=ONE DIMENTIONAL MAN
TTITLE2=SUPERMAN
TTITLE3=LET'S PLAY DEMOCRACY
TTITLE4=ON SALE NOW
TTITLE5=THE αBET
TTITLE6=LET'S CALCULATE
TTITLE7=WE BURNED OUR WORDS
TTITLE8=EINSTEIN'S DILEMMA
EXTD=YEAR: 1984
EXTT0=
EXTT1=
EXTT2=
EXTT3=
EXTT4=
EXTT5=
EXTT6=
EXTT7=
EXTT8=
PLAYORDER=
